<?xml version="1.0" encoding="utf-8"?>
<!-- Generator: Adobe Illustrator 27.2.0, SVG Export Plug-In . SVG Version: 6.00 Build 0)  -->
<svg version="1.1"
	 id="svg154" xmlns:svg="http://www.w3.org/2000/svg" xmlns:inkscape="http://www.inkscape.org/namespaces/inkscape" xmlns:sodipodi="http://sodipodi.sourceforge.net/DTD/sodipodi-0.dtd" inkscape:version="1.2.2 (732a01da63, 2022-12-09)"
	 xmlns="http://www.w3.org/2000/svg" xmlns:xlink="http://www.w3.org/1999/xlink" x="0px" y="0px" viewBox="0 0 100 100"
	 style="enable-background:new 0 0 100 100;" xml:space="preserve">
<style type="text/css">
	.st0{fill:#00338C;}
</style>
<sodipodi:namedview  bordercolor="#000000" borderopacity="0.25" id="namedview156" inkscape:current-layer="svg154" inkscape:cx="100" inkscape:cy="100" inkscape:deskcolor="#d1d1d1" inkscape:pagecheckerboard="0" inkscape:pageopacity="0.0" inkscape:showpageshadow="2" inkscape:window-height="1261" inkscape:window-maximized="1" inkscape:window-width="2400" inkscape:window-x="-9" inkscape:window-y="-9" inkscape:zoom="5.225" pagecolor="#ffffff" showgrid="false">
	</sodipodi:namedview>
<path id="path146" class="st0" d="M72.4,61.1c0,6.2-2.6,12.2-7.3,16.9c-6,6-14.9,9.5-24.4,9.5c-7.7,0-18.6-3.2-28-11.3
	c-1.2-1.1-2.8-1.7-4.6-1.7c-3.9,0-7,3.1-7,7c0,1.9,0.8,3.7,2,4.9c1,1,2.2,1.9,3.3,2.8c13,10,27.7,10.8,31.9,10.8
	c14.3,0,26.3-4.5,34.7-12.9c8.9-8.9,12-20.2,12-27.8c0-8.8-3.2-17.1-8.7-22.7c-4.3-4.3-9.7-6.6-15.2-6.6c-5.8,0-11.2,2.2-15.2,6.1
	c-1.1,1.1-2.1,2.3-2.9,3.6c2.1-1.3,4.6-2,7.5-2C62.6,37.8,72.4,48.2,72.4,61.1L72.4,61.1z"/>
<path id="path148" class="st0" d="M61.1,27.6c6.2,0,12.2,2.6,16.9,7.3c6,6,9.5,14.9,9.5,24.4c0,7.7-3.2,18.6-11.3,28
	c-1.1,1.2-1.7,2.8-1.7,4.6c0,3.9,3.1,7,7,7c1.9,0,3.7-0.8,4.9-2c1-1,1.9-2.2,2.8-3.3c10-13,10.8-27.7,10.8-31.9
	c0-14.3-4.5-26.3-12.9-34.7C78.3,18.2,67,15,59.3,15c-8.8,0-17.1,3.2-22.7,8.7c-4.3,4.3-6.6,9.7-6.6,15.2c0,5.8,2.2,11.2,6.1,15.2
	c1.1,1.1,2.3,2.1,3.6,2.9c-1.3-2.1-2-4.6-2-7.5C37.8,37.4,48.2,27.6,61.1,27.6z"/>
<path id="path150" class="st0" d="M27.6,38.9c0-6.2,2.6-12.2,7.3-16.9c6-6,14.9-9.5,24.4-9.5c7.7,0,18.6,3.2,28,11.3
	c1.2,1.1,2.8,1.7,4.6,1.7c3.9,0,7-3.1,7-7c0-1.9-0.8-3.7-2-4.9c-1-1-2.2-1.9-3.3-2.8C80.6,0.8,65.9,0,61.7,0
	C47.5,0,35.5,4.5,27,12.9C18.2,21.7,15,33,15,40.7c0,8.8,3.2,17.1,8.7,22.7c4.3,4.3,9.7,6.6,15.2,6.6c5.8,0,11.2-2.2,15.2-6.1
	c1.1-1.1,2.1-2.3,2.9-3.6c-2.1,1.3-4.6,2-7.5,2C37.4,62.2,27.6,51.8,27.6,38.9z"/>
<path id="path152" class="st0" d="M38.9,72.4c-6.2,0-12.2-2.6-16.9-7.3c-6-6-9.5-14.9-9.5-24.4c0-7.7,3.2-18.6,11.3-28
	c1.1-1.2,1.7-2.8,1.7-4.6c0-3.9-3.1-7-7-7c-1.9,0-3.7,0.8-4.9,2c-1,1-1.9,2.2-2.8,3.3C0.8,19.4,0,34.1,0,38.3
	C0,52.5,4.5,64.5,12.9,73c8.9,8.9,20.2,12,27.8,12c8.8,0,17.1-3.2,22.7-8.7c4.3-4.3,6.6-9.7,6.6-15.2c0-5.8-2.2-11.2-6.1-15.2
	c-1.1-1.1-2.3-2.1-3.6-2.9c1.3,2.1,2,4.6,2,7.5C62.2,62.6,51.8,72.4,38.9,72.4z"/>
</svg>
