<?xml version="1.0" encoding="UTF-8"?>
<svg id="Layer_2" data-name="Layer 2" xmlns="http://www.w3.org/2000/svg" viewBox="0 0 401.3 108.29" width="401.3" height="108.29">
  <defs>
    <style>
      .cls-1 {
        fill: #febd11;
      }

      .cls-2 {
        fill: #1a1e4d;
      }
    </style>
  </defs>
  <g id="Layer_1-2" data-name="Layer 1">
    <g>
      <path id="path146" class="cls-1" d="m72.36,61.06c0,6.19-2.61,12.21-7.35,16.95-6.02,6.02-14.91,9.47-24.41,9.47-7.67,0-18.64-3.23-27.99-11.28-1.22-1.05-2.82-1.7-4.57-1.7-3.86,0-6.99,3.13-6.99,6.99,0,1.91.78,3.66,2.02,4.92,1.01,1.03,2.17,1.93,3.32,2.82,12.99,10,27.66,10.78,31.85,10.78,14.28,0,26.28-4.45,34.7-12.88,8.87-8.87,12.03-20.17,12.03-27.79,0-8.84-3.19-17.1-8.74-22.65-4.27-4.27-9.66-6.62-15.19-6.62-5.83,0-11.22,2.18-15.17,6.13-1.11,1.11-2.06,2.32-2.86,3.6,2.08-1.33,4.63-2.02,7.52-2.02,12.03,0,21.82,10.44,21.82,23.28h0Z"/>
      <path id="path148" class="cls-1" d="m61.06,27.64c6.19,0,12.21,2.61,16.95,7.35,6.02,6.02,9.47,14.91,9.47,24.41,0,7.67-3.23,18.64-11.28,27.99-1.05,1.22-1.7,2.82-1.7,4.57,0,3.86,3.13,6.99,6.99,6.99,1.91,0,3.66-.78,4.92-2.02,1.03-1.01,1.93-2.17,2.82-3.32,10-12.99,10.78-27.66,10.78-31.85,0-14.28-4.45-26.28-12.88-34.7-8.87-8.87-20.17-12.03-27.79-12.03-8.84,0-17.1,3.19-22.65,8.74-4.27,4.27-6.62,9.66-6.62,15.19,0,5.83,2.18,11.22,6.13,15.17,1.11,1.11,2.32,2.06,3.6,2.86-1.33-2.08-2.02-4.63-2.02-7.52,0-12.03,10.44-21.82,23.28-21.82Z"/>
      <path id="path150" class="cls-1" d="m27.64,38.94c0-6.19,2.61-12.21,7.35-16.95,6.02-6.02,14.91-9.47,24.41-9.47,7.67,0,18.64,3.23,27.99,11.28,1.22,1.05,2.82,1.7,4.57,1.7,3.86,0,6.99-3.13,6.99-6.99,0-1.91-.78-3.66-2.02-4.92-1.01-1.03-2.17-1.94-3.32-2.82C80.61.78,65.94,0,61.75,0c-14.28,0-26.28,4.45-34.7,12.88-8.87,8.87-12.03,20.17-12.03,27.79,0,8.84,3.19,17.1,8.74,22.65,4.27,4.27,9.66,6.62,15.19,6.62,5.83,0,11.22-2.18,15.17-6.13,1.11-1.11,2.06-2.32,2.86-3.6-2.08,1.33-4.63,2.02-7.52,2.02-12.03,0-21.82-10.44-21.82-23.28Z"/>
      <path id="path152" class="cls-1" d="m38.94,72.36c-6.19,0-12.21-2.61-16.95-7.35-6.02-6.02-9.47-14.91-9.47-24.41,0-7.67,3.23-18.64,11.28-27.99,1.05-1.22,1.7-2.82,1.7-4.57,0-3.86-3.13-6.99-6.99-6.99-1.91,0-3.66.78-4.92,2.02-1.03,1.01-1.93,2.17-2.82,3.32C.78,19.39,0,34.06,0,38.25c0,14.28,4.45,26.28,12.88,34.7,8.87,8.87,20.17,12.03,27.79,12.03,8.84,0,17.1-3.19,22.65-8.74,4.27-4.27,6.62-9.66,6.62-15.19,0-5.83-2.18-11.22-6.13-15.17-1.11-1.11-2.32-2.06-3.6-2.86,1.33,2.08,2.02,4.63,2.02,7.52,0,12.03-10.44,21.82-23.28,21.82Z"/>
    </g>
    <g>
      <path class="cls-2" d="m139.69,15.02v69.96h-21.62V15.02h21.62Zm44.84,0l-33.6,42.08-1.06-4.13-16.01,20.67-4.66-16.01,31.91-42.61h23.43Zm-25.86,22.15l27.56,47.81h-24.49l-19.08-35.83,16.01-11.98Z"/>
      <path class="cls-2" d="m218.24,13.96c7.28,0,13.52,1.43,18.71,4.29,5.19,2.86,9.19,6.98,11.98,12.35,2.79,5.37,4.19,11.84,4.19,19.4s-1.4,14.03-4.19,19.4c-2.79,5.37-6.78,9.49-11.98,12.35-5.19,2.86-11.43,4.29-18.71,4.29s-13.45-1.43-18.71-4.29c-5.27-2.86-9.31-6.98-12.14-12.35-2.83-5.37-4.24-11.84-4.24-19.4s1.41-14.03,4.24-19.4c2.83-5.37,6.87-9.49,12.14-12.35,5.26-2.86,11.5-4.29,18.71-4.29Zm0,16.54c-2.9,0-5.28.73-7.15,2.17-1.87,1.45-3.29,3.59-4.24,6.41-.95,2.83-1.43,6.47-1.43,10.92s.48,8,1.43,10.86c.95,2.86,2.37,5.02,4.24,6.47,1.87,1.45,4.26,2.17,7.15,2.17s5.19-.72,7.1-2.17c1.91-1.45,3.32-3.6,4.24-6.47.92-2.86,1.38-6.48,1.38-10.86s-.46-8.09-1.38-10.92c-.92-2.83-2.33-4.96-4.24-6.41-1.91-1.45-4.28-2.17-7.1-2.17Z"/>
      <path class="cls-2" d="m299.33,15.02c8.69,0,15.42,2,20.19,5.99,4.77,3.99,7.15,9.31,7.15,15.95,0,7.42-2.33,13.04-7,16.85s-11.38,5.72-20.14,5.72l-2.12,1.17h-12.72v24.27h-21.2V15.02h35.83Zm-3.5,30.95c3.04,0,5.32-.58,6.84-1.75,1.52-1.17,2.28-3.09,2.28-5.78s-.76-4.63-2.28-5.83c-1.52-1.2-3.8-1.8-6.84-1.8h-11.13v15.16h11.13Zm12.83,4.56l22.05,34.45h-23.64l-17.07-30.63,18.66-3.82Z"/>
      <path class="cls-2" d="m401.3,15.02v40.6c0,10.18-2.72,17.79-8.16,22.84-5.44,5.05-13.57,7.58-24.38,7.58s-19.05-2.53-24.49-7.58c-5.44-5.05-8.16-12.67-8.16-22.84V15.02h21.73v41.76c0,4.24.92,7.42,2.76,9.54,1.84,2.12,4.56,3.18,8.16,3.18s6.32-1.06,8.16-3.18c1.84-2.12,2.76-5.3,2.76-9.54V15.02h21.62Z"/>
    </g>
    <g>
      <path class="cls-2" d="m235.09,104.85v-10.56h7.41v1.2h-6.13v3.41h4.77v1.2h-4.77v3.55h6.37v1.2h-7.65Z"/>
      <path class="cls-2" d="m247.93,105.01c-.78,0-1.5-.17-2.15-.5-.66-.33-1.16-.8-1.51-1.41l1.09-.78c.23.49.58.87,1.03,1.15s1,.42,1.64.42c.57,0,1.01-.11,1.33-.33.32-.22.48-.5.48-.86,0-.22-.07-.43-.22-.62-.14-.19-.42-.32-.82-.41l-1.92-.4c-.78-.16-1.34-.43-1.67-.8-.34-.37-.5-.84-.5-1.39,0-.44.12-.84.38-1.2.25-.36.61-.65,1.07-.87.46-.22,1.01-.33,1.64-.33.79,0,1.46.15,2,.46.54.31.95.75,1.22,1.31l-1.07.7c-.18-.47-.47-.81-.88-1.03s-.83-.33-1.26-.33c-.38,0-.71.05-.98.16s-.48.25-.62.44-.22.4-.22.63.08.45.24.65c.16.2.46.34.9.42l2,.42c.75.15,1.27.39,1.57.74.3.34.45.76.45,1.25s-.13.94-.4,1.32c-.27.38-.64.67-1.12.87s-1.04.3-1.66.3Z"/>
      <path class="cls-2" d="m258.29,96.85v1.1h-5.79v-1.1h5.79Zm-2.91-2.27v8.06c0,.39.11.69.34.88.22.19.51.29.86.29.31,0,.58-.05.8-.16.22-.11.43-.25.61-.43l.45,1.07c-.25.22-.54.4-.87.53-.34.13-.72.19-1.16.19-.41,0-.78-.07-1.14-.22-.35-.14-.63-.37-.84-.69-.21-.31-.32-.73-.33-1.24v-7.94l1.28-.35Z"/>
      <path class="cls-2" d="m260.19,104.85v-8h1.04l.18,1.31c.22-.49.55-.86.98-1.1.43-.25.96-.37,1.58-.37.14,0,.29.01.46.03.17.02.31.06.42.13l-.22,1.17c-.12-.04-.25-.07-.38-.1-.14-.02-.34-.03-.59-.03-.33,0-.66.1-1,.29s-.62.48-.84.87c-.22.39-.34.88-.34,1.48v4.32h-1.28Z"/>
      <path class="cls-2" d="m271.17,99.69c0-.6-.16-1.06-.48-1.38-.32-.33-.77-.49-1.36-.49-.55,0-1.02.12-1.41.36-.38.24-.67.63-.85,1.16l-1.04-.64c.21-.6.61-1.08,1.18-1.45.58-.37,1.29-.55,2.14-.55.58,0,1.1.1,1.57.3.47.2.84.5,1.11.9.27.4.41.91.41,1.54v3.87c0,.38.2.58.61.58.2,0,.4-.03.59-.08l-.06,1.01c-.21.11-.49.16-.83.16-.31,0-.59-.06-.83-.18-.25-.12-.44-.3-.58-.54-.14-.24-.21-.54-.21-.9v-.16l.32.05c-.13.42-.35.75-.66,1.02-.31.26-.66.45-1.04.58s-.76.18-1.14.18c-.47,0-.91-.08-1.31-.24s-.73-.4-.97-.73c-.24-.33-.36-.73-.36-1.21,0-.6.2-1.09.6-1.48.4-.39.96-.65,1.67-.79l3.17-.62v1.06l-2.58.53c-.52.11-.91.26-1.17.45s-.38.46-.38.8.13.6.39.81.63.31,1.11.31c.31,0,.61-.04.89-.12s.54-.2.76-.37c.22-.17.4-.37.53-.62s.19-.55.19-.89v-2.21Z"/>
      <path class="cls-2" d="m280.03,96.85v1.1h-5.79v-1.1h5.79Zm-2.91-2.27v8.06c0,.39.11.69.34.88.22.19.51.29.86.29.31,0,.58-.05.8-.16.22-.11.43-.25.61-.43l.45,1.07c-.25.22-.54.4-.87.53-.34.13-.72.19-1.16.19-.41,0-.78-.07-1.14-.22-.35-.14-.63-.37-.84-.69-.21-.31-.32-.73-.33-1.24v-7.94l1.28-.35Z"/>
      <path class="cls-2" d="m285.28,105.01c-.76,0-1.43-.17-2.02-.5-.59-.33-1.05-.81-1.38-1.43-.33-.62-.5-1.37-.5-2.23s.17-1.61.5-2.23c.33-.62.78-1.1,1.36-1.43.58-.33,1.23-.5,1.97-.5s1.38.16,1.91.48c.53.32.93.75,1.21,1.3s.42,1.17.42,1.85c0,.18,0,.35-.02.5-.01.15-.03.28-.05.4h-6.46v-1.14h5.9l-.66.13c0-.77-.21-1.36-.63-1.78-.42-.42-.97-.62-1.66-.62-.52,0-.97.12-1.35.36-.38.24-.67.59-.88,1.04-.21.45-.31,1-.31,1.64s.11,1.17.32,1.63c.21.46.51.81.9,1.05.39.24.86.36,1.4.36.59,0,1.06-.11,1.43-.34s.66-.53.89-.91l1.01.59c-.2.36-.46.68-.78.94-.32.27-.68.47-1.1.62-.42.14-.89.22-1.42.22Z"/>
      <path class="cls-2" d="m295.47,103.83c.76,0,1.35.17,1.78.52s.64.81.64,1.38c0,.52-.17.98-.52,1.36-.35.38-.81.68-1.39.89-.58.21-1.24.31-1.96.31-1.26,0-2.2-.21-2.82-.64s-.94-.94-.94-1.54c0-.43.14-.81.42-1.14.28-.34.76-.53,1.43-.57l-.11.24c-.36-.1-.67-.26-.92-.49-.25-.23-.38-.56-.38-1s.16-.81.49-1.13c.33-.31.81-.51,1.45-.58l.85.43h-.16c-.52.05-.89.18-1.11.39-.22.21-.33.43-.33.68,0,.3.11.52.33.66.22.14.52.22.92.22h2.34Zm-1.58-7.14c.64,0,1.21.11,1.7.34s.88.55,1.16.95.42.87.42,1.41-.14.99-.42,1.4c-.28.41-.66.73-1.16.96-.5.23-1.06.34-1.7.34-1.06,0-1.87-.25-2.43-.76-.57-.51-.85-1.15-.85-1.94,0-.53.14-1,.42-1.41s.67-.72,1.16-.95,1.06-.34,1.7-.34Zm.11,10.53c.62,0,1.13-.06,1.53-.19.4-.13.7-.29.89-.5.19-.2.29-.42.29-.66,0-.29-.11-.52-.34-.69-.23-.17-.64-.26-1.24-.26h-2.46c-.34,0-.63.09-.86.26-.23.18-.35.42-.35.73,0,.39.23.71.68.94.45.23,1.08.35,1.88.35Zm-.11-9.49c-.55,0-1.02.15-1.39.46-.37.3-.56.71-.56,1.21s.19.89.56,1.2c.37.31.84.46,1.39.46s1.02-.15,1.39-.46.56-.71.56-1.2-.19-.9-.56-1.21c-.37-.3-.84-.46-1.39-.46Zm4.02-2.35l.29,1.14h-.11c-.52,0-.92.1-1.21.31-.28.21-.42.54-.42,1l-.78-.4c0-.42.1-.78.29-1.09.19-.31.45-.55.78-.71.33-.17.69-.25,1.09-.25h.08Z"/>
      <path class="cls-2" d="m300.32,95.32c-.29,0-.52-.09-.7-.26-.18-.18-.26-.41-.26-.7s.09-.52.26-.7c.18-.18.41-.26.7-.26s.52.09.7.26c.18.18.26.41.26.7s-.09.52-.26.7c-.18.18-.41.26-.7.26Zm.64,1.54v8h-1.28v-8h1.28Z"/>
      <path class="cls-2" d="m308.6,99.69c0-.6-.16-1.06-.48-1.38-.32-.33-.77-.49-1.36-.49-.55,0-1.02.12-1.41.36-.38.24-.67.63-.85,1.16l-1.04-.64c.21-.6.61-1.08,1.18-1.45.58-.37,1.29-.55,2.14-.55.58,0,1.1.1,1.57.3.47.2.84.5,1.11.9.27.4.41.91.41,1.54v3.87c0,.38.2.58.61.58.2,0,.4-.03.59-.08l-.06,1.01c-.21.11-.49.16-.83.16-.31,0-.59-.06-.83-.18s-.44-.3-.58-.54c-.14-.24-.21-.54-.21-.9v-.16l.32.05c-.13.42-.35.75-.66,1.02-.31.26-.66.45-1.04.58-.38.12-.76.18-1.14.18-.47,0-.91-.08-1.31-.24-.41-.16-.73-.4-.97-.73-.24-.33-.36-.73-.36-1.21,0-.6.2-1.09.6-1.48.4-.39.96-.65,1.67-.79l3.17-.62v1.06l-2.58.53c-.52.11-.91.26-1.17.45-.26.19-.38.46-.38.8s.13.6.39.81c.26.21.63.31,1.11.31.31,0,.61-.04.89-.12.28-.08.54-.2.76-.37.22-.17.4-.37.53-.62.13-.25.19-.55.19-.89v-2.21Z"/>
      <path class="cls-2" d="m325.31,99.19v1.2h-7.78v-1.2h7.78Zm-3.28-3.36v7.94h-1.2v-7.94h1.2Z"/>
      <path class="cls-2" d="m336.83,94.13c.93,0,1.73.19,2.4.57.67.38,1.23.94,1.68,1.67l-1.07.83c-.39-.68-.84-1.17-1.34-1.45-.5-.28-1.1-.42-1.8-.42-.57,0-1.03.08-1.4.24-.37.16-.64.37-.81.63-.17.26-.26.56-.26.89,0,.37.12.7.35.98s.7.5,1.41.66l2.29.51c1.01.22,1.72.56,2.12,1.02.4.45.6,1.02.6,1.69,0,.6-.17,1.13-.5,1.59-.34.46-.81.82-1.42,1.08-.61.26-1.32.38-2.14.38-.77,0-1.44-.1-2.02-.31s-1.08-.49-1.5-.84-.76-.75-1.02-1.18l1.12-.91c.2.41.46.76.78,1.07.32.31.71.55,1.16.72s.97.26,1.56.26c.54,0,1.02-.07,1.42-.2.4-.13.71-.33.92-.59.21-.26.32-.58.32-.95,0-.34-.11-.65-.34-.92-.22-.27-.65-.48-1.26-.62l-2.48-.56c-.65-.15-1.18-.35-1.58-.62-.4-.26-.69-.57-.86-.93s-.26-.74-.26-1.16c0-.57.16-1.09.47-1.56.31-.47.77-.86,1.36-1.14.59-.29,1.29-.43,2.1-.43Z"/>
      <path class="cls-2" d="m346.76,96.69c.76,0,1.43.17,2.01.5.58.33,1.04.81,1.37,1.43.33.62.5,1.37.5,2.23s-.17,1.61-.5,2.23c-.33.62-.79,1.1-1.37,1.43-.58.33-1.25.5-2.01.5s-1.41-.17-2-.5-1.04-.81-1.38-1.43-.5-1.37-.5-2.23.17-1.61.5-2.23.79-1.1,1.38-1.43c.59-.33,1.25-.5,2-.5Zm0,1.1c-.54,0-1.01.12-1.39.37-.38.25-.68.59-.89,1.05-.21.45-.31,1-.31,1.64s.1,1.17.31,1.63c.21.46.5.81.89,1.06.38.25.85.37,1.39.37s1.01-.12,1.39-.37c.38-.25.68-.6.89-1.06.21-.46.31-1,.31-1.63s-.1-1.19-.31-1.64c-.21-.45-.5-.8-.89-1.05-.38-.25-.85-.37-1.39-.37Z"/>
      <path class="cls-2" d="m357.48,96.85v1.1h-5.55v-1.1h5.55Zm-1.33-3.76c.28,0,.54.03.78.1.25.06.44.15.58.27l-.34,1.04c-.13-.08-.27-.15-.42-.18-.15-.04-.31-.06-.5-.06-.46,0-.82.11-1.07.33-.26.22-.38.57-.38,1.05v9.22h-1.28v-9.34c0-.35.05-.68.16-.98.11-.3.27-.55.49-.77s.49-.38.82-.5c.33-.12.71-.18,1.15-.18Z"/>
      <path class="cls-2" d="m363.2,96.85v1.1h-5.79v-1.1h5.79Zm-2.91-2.27v8.06c0,.39.11.69.34.88s.51.29.86.29c.31,0,.58-.05.8-.16.22-.11.43-.25.61-.43l.45,1.07c-.25.22-.54.4-.87.53-.34.13-.72.19-1.16.19-.41,0-.78-.07-1.14-.22-.35-.14-.63-.37-.84-.69-.21-.31-.32-.73-.33-1.24v-7.94l1.28-.35Z"/>
      <path class="cls-2" d="m375.13,96.85h1.42l-2.78,8h-1.28l-2.26-6.37-2.13,6.37h-1.28l-2.78-8h1.42l2.02,6.51,2.18-6.51h1.28l2.18,6.51,2.02-6.51Z"/>
      <path class="cls-2" d="m382.97,99.69c0-.6-.16-1.06-.48-1.38-.32-.33-.77-.49-1.36-.49-.55,0-1.02.12-1.41.36-.38.24-.67.63-.85,1.16l-1.04-.64c.21-.6.61-1.08,1.18-1.45.58-.37,1.29-.55,2.14-.55.58,0,1.1.1,1.57.3s.84.5,1.11.9c.27.4.41.91.41,1.54v3.87c0,.38.2.58.61.58.2,0,.4-.03.59-.08l-.06,1.01c-.21.11-.49.16-.83.16-.31,0-.59-.06-.83-.18-.25-.12-.44-.3-.58-.54-.14-.24-.21-.54-.21-.9v-.16l.32.05c-.13.42-.35.75-.66,1.02-.31.26-.66.45-1.04.58s-.76.18-1.14.18c-.47,0-.91-.08-1.31-.24s-.73-.4-.97-.73c-.24-.33-.36-.73-.36-1.21,0-.6.2-1.09.6-1.48.4-.39.96-.65,1.67-.79l3.17-.62v1.06l-2.58.53c-.52.11-.91.26-1.17.45s-.38.46-.38.8.13.6.39.81c.26.21.63.31,1.11.31.31,0,.61-.04.89-.12.28-.08.54-.2.76-.37.22-.17.4-.37.53-.62s.19-.55.19-.89v-2.21Z"/>
      <path class="cls-2" d="m387.36,104.85v-8h1.04l.18,1.31c.22-.49.55-.86.98-1.1.43-.25.96-.37,1.58-.37.14,0,.29.01.46.03s.31.06.42.13l-.22,1.17c-.12-.04-.25-.07-.38-.1-.14-.02-.34-.03-.59-.03-.33,0-.66.1-1,.29s-.62.48-.84.87c-.22.39-.34.88-.34,1.48v4.32h-1.28Z"/>
      <path class="cls-2" d="m396.97,105.01c-.76,0-1.43-.17-2.02-.5-.59-.33-1.05-.81-1.38-1.43s-.5-1.37-.5-2.23.17-1.61.5-2.23.78-1.1,1.36-1.43c.58-.33,1.23-.5,1.97-.5s1.38.16,1.91.48c.53.32.93.75,1.21,1.3s.42,1.17.42,1.85c0,.18,0,.35-.02.5-.01.15-.03.28-.05.4h-6.46v-1.14h5.9l-.66.13c0-.77-.21-1.36-.63-1.78-.42-.42-.97-.62-1.66-.62-.52,0-.97.12-1.35.36-.38.24-.67.59-.88,1.04-.21.45-.31,1-.31,1.64s.11,1.17.32,1.63c.21.46.51.81.9,1.05.39.24.86.36,1.4.36.59,0,1.06-.11,1.43-.34.37-.22.66-.53.89-.91l1.01.59c-.2.36-.46.68-.78.94s-.68.47-1.1.62c-.42.14-.89.22-1.42.22Z"/>
    </g>
  </g>
</svg>