<?xml version="1.0" encoding="UTF-8"?>
<svg id="Layer_1" data-name="Layer 1" xmlns="http://www.w3.org/2000/svg" viewBox="0 0 401.3 100">
  <defs>
    <style>
      .cls-1 {
        fill: #243e85;
      }
    </style>
  </defs>
  <g>
    <path class="cls-1" d="m72.36,61.06c0,6.19-2.61,12.21-7.35,16.95-6.02,6.02-14.91,9.47-24.41,9.47-7.67,0-18.64-3.23-27.99-11.28-1.22-1.05-2.82-1.7-4.57-1.7-3.86,0-6.99,3.13-6.99,6.99,0,1.91.78,3.66,2.02,4.92,1.01,1.03,2.17,1.93,3.32,2.82,12.99,10,27.66,10.78,31.85,10.78,14.28,0,26.28-4.45,34.7-12.88,8.87-8.87,12.03-20.17,12.03-27.79,0-8.84-3.19-17.1-8.74-22.65-4.27-4.27-9.66-6.62-15.19-6.62-5.83,0-11.22,2.18-15.17,6.13-1.11,1.11-2.06,2.32-2.86,3.6,2.08-1.33,4.63-2.02,7.52-2.02,12.03,0,21.82,10.44,21.82,23.28h0Z"/>
    <path class="cls-1" d="m61.06,27.64c6.19,0,12.21,2.61,16.95,7.35,6.02,6.02,9.47,14.91,9.47,24.41,0,7.67-3.23,18.64-11.28,27.99-1.05,1.22-1.7,2.82-1.7,4.57,0,3.86,3.13,6.99,6.99,6.99,1.91,0,3.66-.78,4.92-2.02,1.03-1.01,1.93-2.17,2.82-3.32,10-12.99,10.78-27.66,10.78-31.85,0-14.28-4.45-26.28-12.88-34.7-8.87-8.87-20.17-12.03-27.79-12.03-8.84,0-17.1,3.19-22.65,8.74-4.27,4.27-6.62,9.66-6.62,15.19,0,5.83,2.18,11.22,6.13,15.17,1.11,1.11,2.32,2.06,3.6,2.86-1.33-2.08-2.02-4.63-2.02-7.52,0-12.03,10.44-21.82,23.28-21.82Z"/>
    <path class="cls-1" d="m27.64,38.94c0-6.19,2.61-12.21,7.35-16.95,6.02-6.02,14.91-9.47,24.41-9.47,7.67,0,18.64,3.23,27.99,11.28,1.22,1.05,2.82,1.7,4.57,1.7,3.86,0,6.99-3.13,6.99-6.99,0-1.91-.78-3.66-2.02-4.92-1.01-1.03-2.17-1.94-3.32-2.82C80.61.78,65.94,0,61.75,0c-14.28,0-26.28,4.45-34.7,12.88-8.87,8.87-12.03,20.17-12.03,27.79,0,8.84,3.19,17.1,8.74,22.65,4.27,4.27,9.66,6.62,15.19,6.62,5.83,0,11.22-2.18,15.17-6.13,1.11-1.11,2.06-2.32,2.86-3.6-2.08,1.33-4.63,2.02-7.52,2.02-12.03,0-21.82-10.44-21.82-23.28Z"/>
    <path class="cls-1" d="m38.94,72.36c-6.19,0-12.21-2.61-16.95-7.35-6.02-6.02-9.47-14.91-9.47-24.41,0-7.67,3.23-18.64,11.28-27.99,1.05-1.22,1.7-2.82,1.7-4.57,0-3.86-3.13-6.99-6.99-6.99-1.91,0-3.66.78-4.92,2.02-1.03,1.01-1.93,2.17-2.82,3.32C.78,19.39,0,34.06,0,38.25c0,14.28,4.45,26.28,12.88,34.7,8.87,8.87,20.17,12.03,27.79,12.03,8.84,0,17.1-3.19,22.65-8.74,4.27-4.27,6.62-9.66,6.62-15.19,0-5.83-2.18-11.22-6.13-15.17-1.11-1.11-2.32-2.06-3.6-2.86,1.33,2.08,2.02,4.63,2.02,7.52,0,12.03-10.44,21.82-23.28,21.82Z"/>
  </g>
  <g>
    <path class="cls-1" d="m139.69,15.02v69.96h-21.62V15.02h21.62Zm44.84,0l-33.6,42.08-1.06-4.13-16.01,20.67-4.66-16.01,31.91-42.61h23.43Zm-25.86,22.15l27.56,47.81h-24.49l-19.08-35.83,16.01-11.98Z"/>
    <path class="cls-1" d="m218.24,13.96c7.28,0,13.52,1.43,18.71,4.29,5.19,2.86,9.19,6.98,11.98,12.35,2.79,5.37,4.19,11.84,4.19,19.4s-1.4,14.03-4.19,19.4c-2.79,5.37-6.78,9.49-11.98,12.35-5.19,2.86-11.43,4.29-18.71,4.29s-13.45-1.43-18.71-4.29c-5.27-2.86-9.31-6.98-12.14-12.35-2.83-5.37-4.24-11.84-4.24-19.4s1.41-14.03,4.24-19.4c2.83-5.37,6.87-9.49,12.14-12.35,5.26-2.86,11.5-4.29,18.71-4.29Zm0,16.54c-2.9,0-5.28.73-7.15,2.17-1.87,1.45-3.29,3.59-4.24,6.41-.95,2.83-1.43,6.47-1.43,10.92s.48,8,1.43,10.86c.95,2.86,2.37,5.02,4.24,6.47,1.87,1.45,4.26,2.17,7.15,2.17s5.19-.72,7.1-2.17c1.91-1.45,3.32-3.6,4.24-6.47.92-2.86,1.38-6.48,1.38-10.86s-.46-8.09-1.38-10.92c-.92-2.83-2.33-4.96-4.24-6.41-1.91-1.45-4.28-2.17-7.1-2.17Z"/>
    <path class="cls-1" d="m299.33,15.02c8.69,0,15.42,2,20.19,5.99,4.77,3.99,7.15,9.31,7.15,15.95,0,7.42-2.33,13.04-7,16.85s-11.38,5.72-20.14,5.72l-2.12,1.17h-12.72v24.27h-21.2V15.02h35.83Zm-3.5,30.95c3.04,0,5.32-.58,6.84-1.75,1.52-1.17,2.28-3.09,2.28-5.78s-.76-4.63-2.28-5.83c-1.52-1.2-3.8-1.8-6.84-1.8h-11.13v15.16h11.13Zm12.83,4.56l22.05,34.45h-23.64l-17.07-30.63,18.66-3.82Z"/>
    <path class="cls-1" d="m401.3,15.02v40.6c0,10.18-2.72,17.79-8.16,22.84-5.44,5.05-13.57,7.58-24.38,7.58s-19.05-2.53-24.49-7.58c-5.44-5.05-8.16-12.67-8.16-22.84V15.02h21.73v41.76c0,4.24.92,7.42,2.76,9.54,1.84,2.12,4.56,3.18,8.16,3.18s6.32-1.06,8.16-3.18c1.84-2.12,2.76-5.3,2.76-9.54V15.02h21.62Z"/>
  </g>
</svg>