<?xml version="1.0" encoding="utf-8"?>
<!-- Generator: Adobe Illustrator 27.2.0, SVG Export Plug-In . SVG Version: 6.00 Build 0)  -->
<svg version="1.1" id="Layer_2_00000004514831684208378010000013973483996361932192_"
	 xmlns="http://www.w3.org/2000/svg" xmlns:xlink="http://www.w3.org/1999/xlink" x="0px" y="0px" viewBox="0 0 401.3 108.3"
	 style="enable-background:new 0 0 401.3 108.3;" xml:space="preserve">
<style type="text/css">
	.st0{fill:#E84855;}
	.st1{fill:#1A1E4D;}
</style>
<g>
	<path id="path146" class="st0" d="M72.4,61.1c0,6.2-2.6,12.2-7.3,17c-6,6-14.9,9.5-24.4,9.5c-7.7,0-18.6-3.2-28-11.3
		c-1.2-1.1-2.8-1.7-4.6-1.7c-3.9,0-7,3.1-7,7c0,1.9,0.8,3.7,2,4.9c1,1,2.2,1.9,3.3,2.8c13,10,27.7,10.8,31.9,10.8
		c14.3,0,26.3-4.4,34.7-12.9c8.9-8.9,12-20.2,12-27.8c0-8.8-3.2-17.1-8.7-22.7c-4.3-4.3-9.7-6.6-15.2-6.6c-5.8,0-11.2,2.2-15.2,6.1
		c-1.1,1.1-2.1,2.3-2.9,3.6c2.1-1.3,4.6-2,7.5-2C62.6,37.8,72.4,48.2,72.4,61.1L72.4,61.1L72.4,61.1z"/>
	<path id="path148" class="st0" d="M61.1,27.6c6.2,0,12.2,2.6,17,7.3c6,6,9.5,14.9,9.5,24.4c0,7.7-3.2,18.6-11.3,28
		c-1.1,1.2-1.7,2.8-1.7,4.6c0,3.9,3.1,7,7,7c1.9,0,3.7-0.8,4.9-2c1-1,1.9-2.2,2.8-3.3c10-13,10.8-27.7,10.8-31.8
		c0-14.3-4.4-26.3-12.9-34.7C78.3,18.2,67,15,59.3,15c-8.8,0-17.1,3.2-22.7,8.7c-4.3,4.3-6.6,9.7-6.6,15.2c0,5.8,2.2,11.2,6.1,15.2
		c1.1,1.1,2.3,2.1,3.6,2.9c-1.3-2.1-2-4.6-2-7.5C37.8,37.4,48.2,27.6,61.1,27.6L61.1,27.6z"/>
	<path id="path150" class="st0" d="M27.6,38.9c0-6.2,2.6-12.2,7.3-17c6-6,14.9-9.5,24.4-9.5c7.7,0,18.6,3.2,28,11.3
		c1.2,1,2.8,1.7,4.6,1.7c3.9,0,7-3.1,7-7c0-1.9-0.8-3.7-2-4.9c-1-1-2.2-1.9-3.3-2.8C80.6,0.8,65.9,0,61.8,0C47.5,0,35.5,4.4,27,12.9
		C18.2,21.8,15,33,15,40.7c0,8.8,3.2,17.1,8.7,22.6c4.3,4.3,9.7,6.6,15.2,6.6c5.8,0,11.2-2.2,15.2-6.1c1.1-1.1,2.1-2.3,2.9-3.6
		c-2.1,1.3-4.6,2-7.5,2C37.4,62.2,27.6,51.8,27.6,38.9L27.6,38.9z"/>
	<path id="path152" class="st0" d="M38.9,72.4c-6.2,0-12.2-2.6-17-7.3c-6-6-9.5-14.9-9.5-24.4c0-7.7,3.2-18.6,11.3-28
		c1-1.2,1.7-2.8,1.7-4.6c0-3.9-3.1-7-7-7c-1.9,0-3.7,0.8-4.9,2c-1,1-1.9,2.2-2.8,3.3C0.8,19.4,0,34.1,0,38.2
		c0,14.3,4.4,26.3,12.9,34.7c8.9,8.9,20.2,12,27.8,12c8.8,0,17.1-3.2,22.6-8.7c4.3-4.3,6.6-9.7,6.6-15.2c0-5.8-2.2-11.2-6.1-15.2
		c-1.1-1.1-2.3-2.1-3.6-2.9c1.3,2.1,2,4.6,2,7.5C62.2,62.6,51.8,72.4,38.9,72.4L38.9,72.4z"/>
</g>
<g>
	<path class="st1" d="M139.7,15v70h-21.6V15H139.7z M184.5,15l-33.6,42.1l-1.1-4.1l-16,20.7l-4.7-16L161.1,15L184.5,15L184.5,15z
		 M158.7,37.2L186.2,85h-24.5l-19.1-35.8L158.7,37.2L158.7,37.2z"/>
	<path class="st1" d="M218.2,14c7.3,0,13.5,1.4,18.7,4.3s9.2,7,12,12.4s4.2,11.8,4.2,19.4s-1.4,14-4.2,19.4
		c-2.8,5.4-6.8,9.5-12,12.3c-5.2,2.9-11.4,4.3-18.7,4.3s-13.4-1.4-18.7-4.3c-5.3-2.9-9.3-7-12.1-12.3c-2.8-5.4-4.2-11.8-4.2-19.4
		s1.4-14,4.2-19.4s6.9-9.5,12.1-12.4C204.8,15.4,211,14,218.2,14L218.2,14z M218.2,30.5c-2.9,0-5.3,0.7-7.1,2.2
		c-1.9,1.5-3.3,3.6-4.2,6.4c-0.9,2.8-1.4,6.5-1.4,10.9s0.5,8,1.4,10.9s2.4,5,4.2,6.5c1.9,1.4,4.3,2.2,7.1,2.2s5.2-0.7,7.1-2.2
		s3.3-3.6,4.2-6.5c0.9-2.9,1.4-6.5,1.4-10.9s-0.5-8.1-1.4-10.9c-0.9-2.8-2.3-5-4.2-6.4S221.1,30.5,218.2,30.5z"/>
	<path class="st1" d="M299.3,15c8.7,0,15.4,2,20.2,6s7.1,9.3,7.1,15.9c0,7.4-2.3,13-7,16.8s-11.4,5.7-20.1,5.7l-2.1,1.2h-12.7V85
		h-21.2V15H299.3L299.3,15z M295.8,46c3,0,5.3-0.6,6.8-1.8s2.3-3.1,2.3-5.8s-0.8-4.6-2.3-5.8s-3.8-1.8-6.8-1.8h-11.1V46H295.8z
		 M308.7,50.5l22,34.5h-23.6L290,54.4L308.7,50.5L308.7,50.5z"/>
	<path class="st1" d="M401.3,15v40.6c0,10.2-2.7,17.8-8.2,22.8c-5.4,5.1-13.6,7.6-24.4,7.6s-19-2.5-24.5-7.6s-8.2-12.7-8.2-22.8V15
		h21.7v41.8c0,4.2,0.9,7.4,2.8,9.5s4.6,3.2,8.2,3.2s6.3-1.1,8.2-3.2s2.8-5.3,2.8-9.5V15H401.3L401.3,15z"/>
</g>
<g>
	<path class="st1" d="M235.1,104.8V94.3h7.4v1.2h-6.1v3.4h4.8v1.2h-4.8v3.6h6.4v1.2H235.1z"/>
	<path class="st1" d="M247.9,105c-0.8,0-1.5-0.2-2.1-0.5c-0.7-0.3-1.2-0.8-1.5-1.4l1.1-0.8c0.2,0.5,0.6,0.9,1,1.2s1,0.4,1.6,0.4
		c0.6,0,1-0.1,1.3-0.3s0.5-0.5,0.5-0.9c0-0.2-0.1-0.4-0.2-0.6c-0.1-0.2-0.4-0.3-0.8-0.4l-1.9-0.4c-0.8-0.2-1.3-0.4-1.7-0.8
		c-0.3-0.4-0.5-0.8-0.5-1.4c0-0.4,0.1-0.8,0.4-1.2c0.2-0.4,0.6-0.7,1.1-0.9s1-0.3,1.6-0.3c0.8,0,1.5,0.2,2,0.5s0.9,0.8,1.2,1.3
		l-1.1,0.7c-0.2-0.5-0.5-0.8-0.9-1s-0.8-0.3-1.3-0.3c-0.4,0-0.7,0.1-1,0.2s-0.5,0.2-0.6,0.4S246,98.8,246,99s0.1,0.4,0.2,0.7
		c0.2,0.2,0.5,0.3,0.9,0.4l2,0.4c0.8,0.2,1.3,0.4,1.6,0.7c0.3,0.3,0.4,0.8,0.4,1.2s-0.1,0.9-0.4,1.3c-0.3,0.4-0.6,0.7-1.1,0.9
		S248.6,105,247.9,105L247.9,105z"/>
	<path class="st1" d="M258.3,96.8v1.1h-5.8v-1.1H258.3z M255.4,94.6v8.1c0,0.4,0.1,0.7,0.3,0.9c0.2,0.2,0.5,0.3,0.9,0.3
		c0.3,0,0.6-0.1,0.8-0.2s0.4-0.2,0.6-0.4l0.5,1.1c-0.2,0.2-0.5,0.4-0.9,0.5c-0.3,0.1-0.7,0.2-1.2,0.2c-0.4,0-0.8-0.1-1.1-0.2
		c-0.4-0.1-0.6-0.4-0.8-0.7c-0.2-0.3-0.3-0.7-0.3-1.2v-7.9L255.4,94.6L255.4,94.6z"/>
	<path class="st1" d="M260.2,104.8v-8h1l0.2,1.3c0.2-0.5,0.5-0.9,1-1.1c0.4-0.2,1-0.4,1.6-0.4c0.1,0,0.3,0,0.5,0
		c0.2,0,0.3,0.1,0.4,0.1l-0.2,1.2c-0.1,0-0.2-0.1-0.4-0.1c-0.1,0-0.3,0-0.6,0c-0.3,0-0.7,0.1-1,0.3s-0.6,0.5-0.8,0.9
		s-0.3,0.9-0.3,1.5v4.3H260.2L260.2,104.8z"/>
	<path class="st1" d="M271.2,99.7c0-0.6-0.2-1.1-0.5-1.4c-0.3-0.3-0.8-0.5-1.4-0.5c-0.5,0-1,0.1-1.4,0.4c-0.4,0.2-0.7,0.6-0.9,1.2
		l-1-0.6c0.2-0.6,0.6-1.1,1.2-1.4c0.6-0.4,1.3-0.6,2.1-0.6c0.6,0,1.1,0.1,1.6,0.3c0.5,0.2,0.8,0.5,1.1,0.9s0.4,0.9,0.4,1.5v3.9
		c0,0.4,0.2,0.6,0.6,0.6c0.2,0,0.4,0,0.6-0.1l-0.1,1c-0.2,0.1-0.5,0.2-0.8,0.2c-0.3,0-0.6-0.1-0.8-0.2c-0.2-0.1-0.4-0.3-0.6-0.5
		c-0.1-0.2-0.2-0.5-0.2-0.9v-0.2l0.3,0.1c-0.1,0.4-0.4,0.8-0.7,1c-0.3,0.3-0.7,0.4-1,0.6s-0.8,0.2-1.1,0.2c-0.5,0-0.9-0.1-1.3-0.2
		s-0.7-0.4-1-0.7s-0.4-0.7-0.4-1.2c0-0.6,0.2-1.1,0.6-1.5c0.4-0.4,1-0.7,1.7-0.8l3.2-0.6v1.1l-2.6,0.5c-0.5,0.1-0.9,0.3-1.2,0.4
		s-0.4,0.5-0.4,0.8s0.1,0.6,0.4,0.8s0.6,0.3,1.1,0.3c0.3,0,0.6,0,0.9-0.1s0.5-0.2,0.8-0.4c0.2-0.2,0.4-0.4,0.5-0.6s0.2-0.6,0.2-0.9
		L271.2,99.7L271.2,99.7z"/>
	<path class="st1" d="M280,96.8v1.1h-5.8v-1.1H280z M277.1,94.6v8.1c0,0.4,0.1,0.7,0.3,0.9c0.2,0.2,0.5,0.3,0.9,0.3
		c0.3,0,0.6-0.1,0.8-0.2s0.4-0.2,0.6-0.4l0.5,1.1c-0.2,0.2-0.5,0.4-0.9,0.5c-0.3,0.1-0.7,0.2-1.2,0.2c-0.4,0-0.8-0.1-1.1-0.2
		c-0.4-0.1-0.6-0.4-0.8-0.7c-0.2-0.3-0.3-0.7-0.3-1.2v-7.9L277.1,94.6L277.1,94.6z"/>
	<path class="st1" d="M285.3,105c-0.8,0-1.4-0.2-2-0.5s-1-0.8-1.4-1.4c-0.3-0.6-0.5-1.4-0.5-2.2s0.2-1.6,0.5-2.2s0.8-1.1,1.4-1.4
		s1.2-0.5,2-0.5s1.4,0.2,1.9,0.5s0.9,0.8,1.2,1.3s0.4,1.2,0.4,1.8c0,0.2,0,0.3,0,0.5c0,0.2,0,0.3,0,0.4h-6.5v-1.1h5.9l-0.7,0.1
		c0-0.8-0.2-1.4-0.6-1.8s-1-0.6-1.7-0.6c-0.5,0-1,0.1-1.4,0.4s-0.7,0.6-0.9,1c-0.2,0.4-0.3,1-0.3,1.6s0.1,1.2,0.3,1.6
		c0.2,0.5,0.5,0.8,0.9,1.1c0.4,0.2,0.9,0.4,1.4,0.4c0.6,0,1.1-0.1,1.4-0.3s0.7-0.5,0.9-0.9l1,0.6c-0.2,0.4-0.5,0.7-0.8,0.9
		c-0.3,0.3-0.7,0.5-1.1,0.6C286.3,104.9,285.8,105,285.3,105z"/>
	<path class="st1" d="M295.5,103.8c0.8,0,1.4,0.2,1.8,0.5s0.6,0.8,0.6,1.4c0,0.5-0.2,1-0.5,1.4c-0.4,0.4-0.8,0.7-1.4,0.9
		c-0.6,0.2-1.2,0.3-2,0.3c-1.3,0-2.2-0.2-2.8-0.6s-0.9-0.9-0.9-1.5c0-0.4,0.1-0.8,0.4-1.1c0.3-0.3,0.8-0.5,1.4-0.6l-0.1,0.2
		c-0.4-0.1-0.7-0.3-0.9-0.5c-0.2-0.2-0.4-0.6-0.4-1s0.2-0.8,0.5-1.1c0.3-0.3,0.8-0.5,1.5-0.6l0.9,0.4h-0.2c-0.5,0.1-0.9,0.2-1.1,0.4
		c-0.2,0.2-0.3,0.4-0.3,0.7c0,0.3,0.1,0.5,0.3,0.7c0.2,0.1,0.5,0.2,0.9,0.2L295.5,103.8L295.5,103.8z M293.9,96.7
		c0.6,0,1.2,0.1,1.7,0.3s0.9,0.6,1.2,0.9s0.4,0.9,0.4,1.4s-0.1,1-0.4,1.4s-0.7,0.7-1.2,1c-0.5,0.2-1.1,0.3-1.7,0.3
		c-1.1,0-1.9-0.2-2.4-0.8c-0.6-0.5-0.9-1.2-0.9-1.9c0-0.5,0.1-1,0.4-1.4s0.7-0.7,1.2-0.9S293.3,96.7,293.9,96.7L293.9,96.7z
		 M294,107.2c0.6,0,1.1-0.1,1.5-0.2c0.4-0.1,0.7-0.3,0.9-0.5c0.2-0.2,0.3-0.4,0.3-0.7c0-0.3-0.1-0.5-0.3-0.7
		c-0.2-0.2-0.6-0.3-1.2-0.3h-2.5c-0.3,0-0.6,0.1-0.9,0.3c-0.2,0.2-0.4,0.4-0.4,0.7c0,0.4,0.2,0.7,0.7,0.9
		C292.6,107.1,293.2,107.2,294,107.2L294,107.2z M293.9,97.7c-0.5,0-1,0.2-1.4,0.5c-0.4,0.3-0.6,0.7-0.6,1.2s0.2,0.9,0.6,1.2
		s0.8,0.5,1.4,0.5s1-0.2,1.4-0.5s0.6-0.7,0.6-1.2s-0.2-0.9-0.6-1.2C294.9,97.9,294.4,97.7,293.9,97.7z M297.9,95.4l0.3,1.1h-0.1
		c-0.5,0-0.9,0.1-1.2,0.3c-0.3,0.2-0.4,0.5-0.4,1l-0.8-0.4c0-0.4,0.1-0.8,0.3-1.1s0.5-0.6,0.8-0.7C297.1,95.5,297.4,95.4,297.9,95.4
		L297.9,95.4L297.9,95.4z"/>
	<path class="st1" d="M300.3,95.3c-0.3,0-0.5-0.1-0.7-0.3c-0.2-0.2-0.3-0.4-0.3-0.7s0.1-0.5,0.3-0.7c0.2-0.2,0.4-0.3,0.7-0.3
		s0.5,0.1,0.7,0.3c0.2,0.2,0.3,0.4,0.3,0.7s-0.1,0.5-0.3,0.7C300.8,95.2,300.6,95.3,300.3,95.3z M301,96.9v8h-1.3v-8H301z"/>
	<path class="st1" d="M308.6,99.7c0-0.6-0.2-1.1-0.5-1.4c-0.3-0.3-0.8-0.5-1.4-0.5c-0.5,0-1,0.1-1.4,0.4c-0.4,0.2-0.7,0.6-0.9,1.2
		l-1-0.6c0.2-0.6,0.6-1.1,1.2-1.4c0.6-0.4,1.3-0.6,2.1-0.6c0.6,0,1.1,0.1,1.6,0.3c0.5,0.2,0.8,0.5,1.1,0.9s0.4,0.9,0.4,1.5v3.9
		c0,0.4,0.2,0.6,0.6,0.6c0.2,0,0.4,0,0.6-0.1l-0.1,1c-0.2,0.1-0.5,0.2-0.8,0.2c-0.3,0-0.6-0.1-0.8-0.2s-0.4-0.3-0.6-0.5
		c-0.1-0.2-0.2-0.5-0.2-0.9v-0.2l0.3,0.1c-0.1,0.4-0.4,0.8-0.7,1c-0.3,0.3-0.7,0.4-1,0.6c-0.4,0.1-0.8,0.2-1.1,0.2
		c-0.5,0-0.9-0.1-1.3-0.2c-0.4-0.2-0.7-0.4-1-0.7s-0.4-0.7-0.4-1.2c0-0.6,0.2-1.1,0.6-1.5c0.4-0.4,1-0.7,1.7-0.8l3.2-0.6v1.1
		l-2.6,0.5c-0.5,0.1-0.9,0.3-1.2,0.4c-0.3,0.2-0.4,0.5-0.4,0.8s0.1,0.6,0.4,0.8s0.6,0.3,1.1,0.3c0.3,0,0.6,0,0.9-0.1
		c0.3-0.1,0.5-0.2,0.8-0.4c0.2-0.2,0.4-0.4,0.5-0.6s0.2-0.6,0.2-0.9L308.6,99.7L308.6,99.7z"/>
	<path class="st1" d="M325.3,99.2v1.2h-7.8v-1.2H325.3z M322,95.8v7.9h-1.2v-7.9H322z"/>
	<path class="st1" d="M336.8,94.1c0.9,0,1.7,0.2,2.4,0.6c0.7,0.4,1.2,0.9,1.7,1.7l-1.1,0.8c-0.4-0.7-0.8-1.2-1.3-1.4
		s-1.1-0.4-1.8-0.4c-0.6,0-1,0.1-1.4,0.2c-0.4,0.2-0.6,0.4-0.8,0.6c-0.2,0.3-0.3,0.6-0.3,0.9c0,0.4,0.1,0.7,0.4,1s0.7,0.5,1.4,0.7
		l2.3,0.5c1,0.2,1.7,0.6,2.1,1c0.4,0.4,0.6,1,0.6,1.7c0,0.6-0.2,1.1-0.5,1.6c-0.3,0.5-0.8,0.8-1.4,1.1c-0.6,0.3-1.3,0.4-2.1,0.4
		c-0.8,0-1.4-0.1-2-0.3s-1.1-0.5-1.5-0.8s-0.8-0.8-1-1.2l1.1-0.9c0.2,0.4,0.5,0.8,0.8,1.1s0.7,0.6,1.2,0.7s1,0.3,1.6,0.3
		c0.5,0,1-0.1,1.4-0.2c0.4-0.1,0.7-0.3,0.9-0.6c0.2-0.3,0.3-0.6,0.3-0.9c0-0.3-0.1-0.7-0.3-0.9c-0.2-0.3-0.6-0.5-1.3-0.6l-2.5-0.6
		c-0.6-0.2-1.2-0.3-1.6-0.6c-0.4-0.3-0.7-0.6-0.9-0.9s-0.3-0.7-0.3-1.2c0-0.6,0.2-1.1,0.5-1.6s0.8-0.9,1.4-1.1
		C335.3,94.3,336,94.1,336.8,94.1L336.8,94.1z"/>
	<path class="st1" d="M346.8,96.7c0.8,0,1.4,0.2,2,0.5c0.6,0.3,1,0.8,1.4,1.4s0.5,1.4,0.5,2.2s-0.2,1.6-0.5,2.2s-0.8,1.1-1.4,1.4
		s-1.2,0.5-2,0.5s-1.4-0.2-2-0.5s-1-0.8-1.4-1.4s-0.5-1.4-0.5-2.2s0.2-1.6,0.5-2.2s0.8-1.1,1.4-1.4S346,96.7,346.8,96.7z
		 M346.8,97.8c-0.5,0-1,0.1-1.4,0.4s-0.7,0.6-0.9,1.1c-0.2,0.4-0.3,1-0.3,1.6s0.1,1.2,0.3,1.6s0.5,0.8,0.9,1.1
		c0.4,0.2,0.9,0.4,1.4,0.4s1-0.1,1.4-0.4s0.7-0.6,0.9-1.1c0.2-0.5,0.3-1,0.3-1.6s-0.1-1.2-0.3-1.6s-0.5-0.8-0.9-1.1
		C347.8,97.9,347.3,97.8,346.8,97.8z"/>
	<path class="st1" d="M357.5,96.8v1.1h-5.5v-1.1H357.5z M356.2,93.1c0.3,0,0.5,0,0.8,0.1c0.2,0.1,0.4,0.2,0.6,0.3l-0.3,1
		c-0.1-0.1-0.3-0.2-0.4-0.2c-0.1,0-0.3-0.1-0.5-0.1c-0.5,0-0.8,0.1-1.1,0.3c-0.3,0.2-0.4,0.6-0.4,1.1v9.2h-1.3v-9.3
		c0-0.3,0-0.7,0.2-1c0.1-0.3,0.3-0.6,0.5-0.8s0.5-0.4,0.8-0.5C355.3,93.2,355.7,93.1,356.2,93.1L356.2,93.1z"/>
	<path class="st1" d="M363.2,96.8v1.1h-5.8v-1.1H363.2z M360.3,94.6v8.1c0,0.4,0.1,0.7,0.3,0.9s0.5,0.3,0.9,0.3
		c0.3,0,0.6-0.1,0.8-0.2s0.4-0.2,0.6-0.4l0.5,1.1c-0.2,0.2-0.5,0.4-0.9,0.5c-0.3,0.1-0.7,0.2-1.2,0.2c-0.4,0-0.8-0.1-1.1-0.2
		c-0.4-0.1-0.6-0.4-0.8-0.7c-0.2-0.3-0.3-0.7-0.3-1.2v-7.9L360.3,94.6L360.3,94.6z"/>
	<path class="st1" d="M375.1,96.8h1.4l-2.8,8h-1.3l-2.3-6.4l-2.1,6.4h-1.3l-2.8-8h1.4l2,6.5l2.2-6.5h1.3l2.2,6.5L375.1,96.8
		L375.1,96.8z"/>
	<path class="st1" d="M383,99.7c0-0.6-0.2-1.1-0.5-1.4c-0.3-0.3-0.8-0.5-1.4-0.5c-0.5,0-1,0.1-1.4,0.4c-0.4,0.2-0.7,0.6-0.9,1.2
		l-1-0.6c0.2-0.6,0.6-1.1,1.2-1.4c0.6-0.4,1.3-0.6,2.1-0.6c0.6,0,1.1,0.1,1.6,0.3s0.8,0.5,1.1,0.9s0.4,0.9,0.4,1.5v3.9
		c0,0.4,0.2,0.6,0.6,0.6c0.2,0,0.4,0,0.6-0.1l-0.1,1c-0.2,0.1-0.5,0.2-0.8,0.2c-0.3,0-0.6-0.1-0.8-0.2c-0.2-0.1-0.4-0.3-0.6-0.5
		c-0.1-0.2-0.2-0.5-0.2-0.9v-0.2l0.3,0.1c-0.1,0.4-0.4,0.8-0.7,1c-0.3,0.3-0.7,0.4-1,0.6s-0.8,0.2-1.1,0.2c-0.5,0-0.9-0.1-1.3-0.2
		s-0.7-0.4-1-0.7s-0.4-0.7-0.4-1.2c0-0.6,0.2-1.1,0.6-1.5c0.4-0.4,1-0.7,1.7-0.8l3.2-0.6v1.1l-2.6,0.5c-0.5,0.1-0.9,0.3-1.2,0.4
		s-0.4,0.5-0.4,0.8s0.1,0.6,0.4,0.8s0.6,0.3,1.1,0.3c0.3,0,0.6,0,0.9-0.1c0.3-0.1,0.5-0.2,0.8-0.4c0.2-0.2,0.4-0.4,0.5-0.6
		s0.2-0.6,0.2-0.9L383,99.7L383,99.7z"/>
	<path class="st1" d="M387.4,104.8v-8h1l0.2,1.3c0.2-0.5,0.5-0.9,1-1.1c0.4-0.2,1-0.4,1.6-0.4c0.1,0,0.3,0,0.5,0s0.3,0.1,0.4,0.1
		l-0.2,1.2c-0.1,0-0.2-0.1-0.4-0.1c-0.1,0-0.3,0-0.6,0c-0.3,0-0.7,0.1-1,0.3s-0.6,0.5-0.8,0.9s-0.3,0.9-0.3,1.5v4.3H387.4
		L387.4,104.8z"/>
	<path class="st1" d="M397,105c-0.8,0-1.4-0.2-2-0.5s-1-0.8-1.4-1.4s-0.5-1.4-0.5-2.2s0.2-1.6,0.5-2.2s0.8-1.1,1.4-1.4
		s1.2-0.5,2-0.5s1.4,0.2,1.9,0.5s0.9,0.8,1.2,1.3s0.4,1.2,0.4,1.8c0,0.2,0,0.3,0,0.5c0,0.2,0,0.3,0,0.4h-6.5v-1.1h5.9l-0.7,0.1
		c0-0.8-0.2-1.4-0.6-1.8s-1-0.6-1.7-0.6c-0.5,0-1,0.1-1.4,0.4s-0.7,0.6-0.9,1c-0.2,0.4-0.3,1-0.3,1.6s0.1,1.2,0.3,1.6
		c0.2,0.5,0.5,0.8,0.9,1.1c0.4,0.2,0.9,0.4,1.4,0.4c0.6,0,1.1-0.1,1.4-0.3c0.4-0.2,0.7-0.5,0.9-0.9l1,0.6c-0.2,0.4-0.5,0.7-0.8,0.9
		s-0.7,0.5-1.1,0.6C398,104.9,397.5,105,397,105z"/>
</g>
</svg>
